# xmcd CD database file
#
# Track frame offsets:
#	150
#	15010
#	29222
#	41072
#	50014
#	63070
#	75100
#	86565
#	102110
#	113352
#	125557
#	139640
#	152167
#	171352
#	184577
#	198572
#	211970
#	223277
#	236187
#
# Disc length: 3358 seconds
#
# Revision: 0
# Processed by: cddbd v1.4PL0 Copyright (c) Steve Scherf et al.
# Submitted via: CDex 1.50
#
DISCID=010d1c13
DTITLE=Great Sounds Of The 60's and 70's - Country Hits
DYEAR=1900
DGENRE=Country
TTITLE0=Take Me Home, Country Roads
TTITLE1=I'm So Lonesome I Could Cry
TTITLE2=Break It To Me Gently
TTITLE3=I Remember You
TTITLE4=Together
TTITLE5=Galveston
TTITLE6=Sweet Dreams
TTITLE7=Autumn Of My Life
TTITLE8=The Wedding
TTITLE9=The Most Beautiful Girl In The World
TTITLE10=Son Of A Rotten Gambler
TTITLE11=Hooked On A Feeling
TTITLE12=Ode To Billie Joe
TTITLE13=Baby, Don't Get Hooked On Me
TTITLE14=Delta Dawn
TTITLE15=Southern Nights
TTITLE16=Don't It Make My Brown Eyes Blue
TTITLE17=Devil Women
TTITLE18=Lay Back In The Arms Of Someone
EXTD=
EXTT0=
EXTT1=
EXTT2=
EXTT3=
EXTT4=
EXTT5=
EXTT6=
EXTT7=
EXTT8=
EXTT9=
EXTT10=
EXTT11=
EXTT12=
EXTT13=
EXTT14=
EXTT15=
EXTT16=
EXTT17=
EXTT18=
PLAYORDER=
